<svg viewBox="0 0 512 512" xmlns="http://www.w3.org/2000/svg" stroke="#554e4e">
  <!-- Определение градиента -->
  <defs>
    <linearGradient id="gradient1" x1="0%" y1="0%" x2="100%" y2="100%">
      <stop offset="30%" style="stop-color:#eae6fa; stop-opacity:1" />
      <stop offset="100%" style="stop-color:#69e0fa; stop-opacity:1" />
    </linearGradient>
  </defs>

  <!-- Элементы с применением градиента -->
  <g id="SVGRepo_iconCarrier" fill="url(#gradient1)">
    <title>ionicons-v5_logos</title>
    <path d="M126.12,315.1A47.06,47.06,0,1,1,79.06,268h47.06Z"></path>
    <path d="M149.84,315.1a47.06,47.06,0,0,1,94.12,0V432.94a47.06,47.06,0,1,1-94.12,0Z"></path>
    <path d="M196.9,126.12A47.06,47.06,0,1,1,244,79.06v47.06Z"></path>
    <path d="M196.9,149.84a47.06,47.06,0,0,1,0,94.12H79.06a47.06,47.06,0,0,1,0-94.12Z"></path>
    <path d="M385.88,196.9A47.06,47.06,0,1,1,432.94,244H385.88Z"></path>
    <path d="M362.16,196.9a47.06,47.06,0,0,1-94.12,0V79.06a47.06,47.06,0,1,1,94.12,0Z"></path>
    <path d="M315.1,385.88A47.06,47.06,0,1,1,268,432.94V385.88Z"></path>
    <path d="M315.1,362.16a47.06,47.06,0,0,1,0-94.12H432.94a47.06,47.06,0,1,1,0,94.12Z"></path>
  </g>
</svg>